<?xml version="1.0" encoding="UTF-8"?>
<!-- Generator: Adobe Illustrator 13.0.1, SVG Export Plug-In . SVG Version: 6.00 Build 14948)  -->
<!DOCTYPE svg PUBLIC "-//W3C//DTD SVG 1.1//EN" "http://www.w3.org/Graphics/SVG/1.1/DTD/svg11.dtd">
<svg version="1.1" id="Layer_1" xmlns="http://www.w3.org/2000/svg" xmlns:xlink="http://www.w3.org/1999/xlink" x="0px" y="0px" width="600px" height="115px" viewBox="0 0 600 115" enable-background="new 0 0 600 115" xml:space="preserve">
<g>
	<g>
		<path fill="#ED1C2E" d="M280.747,97.721h-5.222v3.078h25.097v-3.055h-5.714c-1.759,0-2.051-1.051-2.051-2.333l0.023-39.803    c0-3.494-1.167-15.635-14.927-15.635c-13.781,0-17.621,10.853-19.85,14.125l-0.46-0.012L257.6,42.075    c0-1.399,0.238-2.09-2.651-1.165c-2.913,0.937-11.431,0.667-16.092,0.667v2.079h6.613c1.401,0,1.841,0.209,1.841,1.95v50.157    c0,1.751-0.439,1.958-1.841,1.958h-5.218v3.078h25.085v-3.055h-5.895c-1.743,0-1.858-0.238-1.858-1.87V64.251    c0-6.773,5.891-20.302,17.32-20.302c8.642,0,7.74,11.437,7.74,11.437l-0.051,39.909C282.593,97.039,282.15,97.721,280.747,97.721z    "/>
		<path fill="#ED1C2E" d="M138.665,20.246c0-1.517-0.408-2.168-2.157-2.168h-6.418v-2.608h35.005    c1.995,0,22.877-0.111,22.877,18.673c0,18.79-18.089,20.593-21.356,21.413v0.354c0,0,7.355,1.456,11.786,6.006    c5.6,5.756,6.652,9.105,6.652,19.6c0,10.512,0.814,16.576,6.771,16.576c5.944,0,7.699-3.389,9.564-5.009l1.634,2.329    c-3.5,4.204-9.218,6.295-12.604,6.295c-3.391,0-8.405-0.813-13.656-6.523c-5.247-5.728-4.46-16.543-4.46-24.256    c0-8.274-7.556-14.538-13.396-14.538h-6.65c-1.044,0-1.688,0.414-1.688,1.702v37.76c0,1.636,0.119,1.87,1.872,1.87h6.707v3.061    h-29.175v-3.037h6.855c1.396,0,1.837-0.207,1.837-1.952V20.246z M162.649,53.266c6.067,0,13.768-2.788,13.768-17.609    c0-14.818-7.583-17.542-12.25-17.542h-11.937c-1.044,0-1.688,0.396-1.688,1.685v31.763c0,1.282,0.644,1.685,1.688,1.685    L162.649,53.266z"/>
		<path fill="#ED1C2E" d="M452.401,95.921c0,1.634,0.121,1.862,1.87,1.862h6.984v3.063h-28.561v-3.08h7.592    c1.403,0,1.851-0.205,1.851-1.956V21.749c0-1.628-0.758-2.276-2.28-2.276h-8.11v-2.325c11.702,0,15.755-0.514,20.654-1.86V95.921z    "/>
		<path fill="#ED1C2E" d="M587.065,46.59c-0.297,2.467,0.638,7.607,5.497,7.607c5.377,0,5.799-4.789,5.832-5.253    c0.109-1.757,0-9.217-8.413-9.217c-6.986,0-12.245,8.163-15.167,13.756h-0.555v-12.19c0-0.328-0.107-0.81-0.847-0.605    c-5.271,1.078-15.663,1.177-19.859,1.177v2.384c2.281-0.043,8.144,0.357,8.144,0.357c1.517,0,2.267,0.638,2.267,2.272    l-0.006,48.933c0,1.751-0.434,1.956-1.827,1.956h-6.852v3.08h29.049v-3.063h-8.218c-1.757,0-1.874-0.229-1.874-1.862V64.292    c0-8.409,6.382-17.017,10.467-18.604C585.996,45.249,587.214,45.134,587.065,46.59z"/>
		<path fill="#ED1C2E" d="M492.204,91.587c-0.139,0.223-0.404,0.492-0.702,0.898c-3.977,5.543-11.199,8.642-17.285,8.642    c-4.43,0-15.38-3.971-15.38-15.407c0-16.097,22.394-20.766,30.789-20.766c1.876,0,1.876-1.165,1.876-2.805V48.61    c0-2.342,0.468-7.935-9.575-7.935c-10.041,0-14.007,4.907-14.94,5.838c-0.933,0.937-2.328,2.096,0.242,3.043    c2.559,0.921,3.498,3.026,3.498,5.36c0,2.331-1.628,4.192-3.967,4.192c-3.209,0-5.758-2.131-5.758-5.68    c0-12.362,16.258-15.079,23.502-15.079c7.231,0,16.555,2.325,16.555,11.899v38.738c0,0-0.459,5.832,3.973,5.832    c4.438,0,5.725-4.544,7.237-8.755h1.866c-0.989,5.312-6.059,14.828-12.83,14.828c-6.764,0-8.409-6.764-8.409-7.936    c0-0.392-0.014-0.978-0.068-1.376L492.204,91.587z M480.064,95.991c7.945,0,11.438-8.17,11.438-11.665V69.387    c0,0,0.688-2.102-2.802-2.102c-13.07,0-20.999,6.529-20.999,15.869C467.701,88.987,472.118,95.991,480.064,95.991z"/>
		<path fill="#ED1C2E" d="M300.181,81.058h2.038c0.94,3.971,7.262,19.155,19.98,19.155c12.723,0,13.887-12.04,13.887-14.025    c0-1.984,0.23-8.637-13.775-10.501c-14.002-1.872-22.286-7.938-22.286-18.322c0-10.381,7.582-18.675,18.562-18.675    c8.872,0,12.491,6.079,12.491,6.079h0.567l2.692-4.316h1.372V57.13h-1.851c-0.806-3.736-4.89-16.26-15.157-16.26    c-10.271,0-13.301,8.823-13.301,13.139c0,9.334,16.09,7.085,24.389,10.587c8.198,3.461,10.849,10.271,10.849,17.275    c0,6.529-3.389,20.543-18.679,20.543c-6.881,0-13.529-4.207-15.626-6.654l-4.675,5.021h-1.485L300.181,81.058z"/>
		<path fill="#ED1C2E" d="M240.305,81.269c-3.728,13.229-10.188,21.135-22.526,21.135c-6.98,0-14.136-3.332-18.171-9.077    c-4.789-6.811-7.64-13.311-7.64-22.253c0-17.339,11.011-33.385,24.562-33.385c12.019,0,23.645,10.217,23.645,23.521    c0,0.705,0.086,3.1,0.086,3.1l-34.64,0.018c-1.048,0-1.688,0.408-1.688,1.698v15.735c0,4.892,1.751,17.756,15.636,17.756    c13.008,0,16.861-14.131,18.585-18.897L240.305,81.269z M229.417,54.804c0-3.389-1.442-14.96-12.77-14.96    c-10.855,0-12.743,10.634-12.743,14.96v4.688c0,1.284,0.645,1.69,1.694,1.69h22.12c1.048,0,1.69-0.406,1.69-1.69L229.417,54.804z"/>
		<path fill="#ED1C2E" d="M343.111,81.058h2.035c0.93,3.971,7.242,19.155,19.966,19.155c12.73,0,13.894-12.04,13.894-14.025    c0-1.984,0.242-8.637-13.783-10.501c-13.997-1.872-22.273-7.938-22.273-18.322c0-10.381,7.587-18.675,18.55-18.675    c8.865,0,12.479,6.079,12.479,6.079h0.594l2.682-4.316h1.369V57.13h-1.829c-0.824-3.736-4.911-16.26-15.188-16.26    c-10.262,0-13.281,8.823-13.281,13.139c0,9.334,16.098,7.085,24.378,10.587c8.198,3.461,10.857,10.271,10.857,17.275    c0,6.529-3.391,20.543-18.673,20.543c-6.889,0-13.543-4.207-15.64-6.654l-4.661,5.021h-1.483L343.111,81.058z"/>
		<path fill="#ED1C2E" d="M435.923,81.269c-3.736,13.229-10.189,21.135-22.515,21.135c-7,0-14.148-3.332-18.179-9.077    c-4.778-6.811-7.648-13.311-7.648-22.253c0-17.339,11.01-33.385,24.572-33.385c12.022,0,23.641,10.217,23.641,23.521    c0,0.705,0.09,3.1,0.09,3.1l-34.645,0.018c-1.042,0-1.7,0.408-1.7,1.698v15.735c0,4.892,1.757,17.756,15.649,17.756    c12.998,0,17.068-14.199,18.583-18.897L435.923,81.269z M425.038,54.804c0-3.389-1.464-14.96-12.766-14.96    c-10.861,0-12.751,10.634-12.751,14.96v4.688c0,1.284,0.641,1.69,1.692,1.69h22.124c1.044,0,1.696-0.406,1.696-1.69    L425.038,54.804z"/>
		<path fill="#ED1C2E" d="M556.771,81.269c-3.723,13.229-10.188,21.135-22.532,21.135c-6.986,0-14.147-3.332-18.167-9.077    c-4.794-6.811-7.632-13.311-7.632-22.253c0-17.339,11.009-33.385,24.546-33.385c12.022,0,23.646,10.217,23.646,23.521    c0,0.705,0.088,3.1,0.088,3.1l-34.639,0.018c-1.054,0-1.688,0.408-1.688,1.698v15.735c0,4.892,1.741,17.756,15.628,17.756    c13,0,17.086-14.199,18.587-18.897L556.771,81.269z M545.874,54.804c0-3.389-1.44-14.96-12.758-14.96    c-10.865,0-12.757,10.634-12.757,14.96v4.688c0,1.284,0.654,1.69,1.698,1.69h22.126c1.043,0,1.685-0.406,1.685-1.69    L545.874,54.804z"/>
	</g>
	<g>
		<path fill="#231F20" d="M41.864,98.052c0.771,0.27,1.126,1.154,0.839,1.985c-0.299,0.865-1.123,1.317-1.89,1.055    c-0.74-0.256-1.132-1.143-0.841-1.991C40.261,98.257,41.128,97.801,41.864,98.052z"/>
		<path fill="#231F20" d="M49.643,105.53l-3.811-0.662l0.043-0.262c1.177,0.203,1.278-0.229,1.401-0.927l0.751-4.351    c0.049-0.27,0.133-0.768-0.267-0.84c-0.139-0.021-0.508,0.055-0.873,0.143l0.053-0.299l2.764-0.784l0.178,0.029l-1.112,6.424    c-0.127,0.755-0.088,1.073,0.919,1.259L49.643,105.53z"/>
		<path fill="#231F20" d="M55.936,99.742c-0.047,0.969-0.91,1.338-1.478,1.513c0.853,0.633,1.474,1.459,1.417,2.524    c-0.074,1.446-1.072,2.278-2.545,2.194c-1.111-0.051-2.118-0.76-2.043-2.034c0.055-1.249,0.933-1.642,1.636-1.847    c-0.746-0.527-1.371-1.247-1.318-2.196c0.053-1.067,0.794-2.003,2.442-1.921C55.607,98.052,55.969,99.079,55.936,99.742z     M54.218,101.033c0.25-0.34,0.453-0.609,0.488-1.289c0.033-0.585-0.082-1.405-0.845-1.452c-0.502-0.023-0.865,0.422-0.888,0.891    C52.916,100.248,54.12,100.975,54.218,101.033z M53.421,105.618c0.917,0.043,0.968-0.99,0.99-1.294    c0.047-0.939-0.599-1.458-1.275-2.015c-0.335,0.502-0.566,0.849-0.613,1.677C52.488,104.81,52.75,105.587,53.421,105.618z"/>
		<path fill="#231F20" d="M61.165,105.677l-4.273,0.275l-0.02-0.264c1.534-2.085,2.678-3.67,2.592-5.03    c-0.025-0.305-0.262-1.44-1.32-1.376c-0.24,0.012-0.871,0.129-1.187,1.112l-0.289,0.012c0.16-0.65,0.66-2.378,2.108-2.478    c0.636-0.035,1.928,0.281,2.049,2.021c0.018,0.328,0.07,1.201-1.017,2.522l-1.552,1.87l1.552-0.105    c1.091-0.07,1.173-0.193,1.416-0.98l0.248-0.016L61.165,105.677z"/>
		<path fill="#231F20" d="M66.8,101.771l0.238,1.253l-0.638,0.117l0.298,1.618l-1.472,0.285l-0.297-1.628l-2.516,0.473l-0.24-1.269    c0.607-1.769,1.587-3.924,2.272-5.454l0.8-0.15l0.916,4.878L66.8,101.771z M64.095,98.854l-0.023,0.01l-1.472,3.691l2.12-0.387    L64.095,98.854z"/>
		<path fill="#231F20" d="M70.776,97.853c0.77-0.274,1.605,0.188,1.905,1.02c0.309,0.849-0.047,1.71-0.806,2.003    c-0.734,0.258-1.597-0.17-1.897-1.014C69.67,99.028,70.044,98.118,70.776,97.853z"/>
	</g>
	<path fill="#231F20" d="M78.868,84.104c0.644-0.557,1.271-1.131,1.88-1.733c6.654-6.6,10.343-15.39,10.382-24.759   c0.041-9.375-3.57-18.201-10.166-24.853C74.37,26.109,65.575,22.42,56.205,22.383c-9.366-0.045-18.193,3.562-24.849,10.158   c-6.648,6.596-10.335,15.39-10.373,24.753c-0.045,9.375,3.56,18.201,10.158,24.853c0.672,0.675,1.363,1.319,2.077,1.938   l2.005-1.172c-0.875-0.72-1.72-1.487-2.534-2.307c-6.178-6.237-9.567-14.512-9.524-23.297c0.035-8.784,3.49-17.033,9.73-23.219   c6.239-6.182,14.515-9.569,23.299-9.526c8.788,0.037,17.031,3.494,23.219,9.732c6.188,6.237,9.571,14.511,9.532,23.301   c-0.041,8.79-3.496,17.033-9.737,23.219c-0.771,0.767-1.575,1.487-2.413,2.166L78.868,84.104z M69.789,87.359   c-4.296,1.974-9.007,3.004-13.877,2.98H55.91c-4.862-0.018-9.563-1.089-13.833-3.092l-2.627,1.124   c5.001,2.688,10.619,4.133,16.453,4.158H55.9c5.94,0.025,11.665-1.418,16.748-4.152L69.789,87.359z"/>
	<line fill="none" stroke="#000000" stroke-width="0.1822" x1="75.635" y1="49.014" x2="36.464" y2="49.014"/>
	<path fill="#231F20" d="M60.962,49.014v29.819c0,0,8.755-7.455,11.597-10.174c2.842-2.716,3.311-6.165,3.194-8.526l-0.117-11.119   H60.962z"/>
	<path fill="#231F20" d="M51.379,49.014v29.819c0,0-8.754-7.455-11.599-10.174c-2.842-2.716-3.316-6.165-3.197-8.526l0.127-11.119   H51.379z"/>
	<line fill="none" stroke="#231F20" stroke-width="0.2731" x1="56.109" y1="49.014" x2="56.109" y2="32.855"/>
	<line fill="none" stroke="#231F20" stroke-width="0.2731" x1="75.514" y1="41.292" x2="36.464" y2="41.292"/>
	<path fill="#231F20" d="M76.855,35.202c0,0,0.021,0.01-1.001,0.01h-3.043v0.974h-2.715v-0.974h-2.682v0.974h-2.648v-0.974h-2.676   v0.974h-2.69v-0.974h-3.201l-0.041,1.804h3.242v1.025h2.69v-1.025h2.643v1.025h2.682v-1.025h2.713v1.025h2.684v-1.025h3.059h0.141   L76.855,35.202z"/>
	<polygon fill="#231F20" points="60.706,33.199 61.05,33.796 61.745,33.796 61.403,34.388 61.745,34.991 61.05,34.991    60.706,35.588 60.363,34.991 59.68,34.991 60.019,34.388 59.68,33.796 60.363,33.796  "/>
	<polygon fill="#231F20" points="71.427,33.199 71.77,33.796 72.453,33.796 72.118,34.388 72.453,34.991 71.77,34.991    71.427,35.588 71.087,34.991 70.398,34.991 70.733,34.388 70.398,33.796 71.087,33.796  "/>
	<polygon fill="#231F20" points="66.098,38.421 66.441,39.012 67.132,39.012 66.787,39.615 67.132,40.218 66.441,40.212    66.098,40.808 65.752,40.212 65.059,40.218 65.407,39.615 65.059,39.012 65.752,39.012  "/>
	<path fill="#231F20" stroke="#231F20" stroke-width="0.1093" stroke-linejoin="round" d="M51.417,45.038   c0.99,0,2.399-0.17,2.44-0.404c0.029-0.252,0.24-1.066,0.828-1.405c-0.262-0.188-0.467-0.203-0.799,0.1   c-0.183-0.182-0.41-0.012-0.568,0.135c0.369,0.125,0.338,0.322,0.178,0.451c-0.17,0.123-0.352,0.146-0.623,0.053   c-0.213-0.082-0.463-0.223-0.416-0.428c0.035-0.146,0.145-0.322,0.432-0.21c-0.236-0.802-1.068-0.516-1.068-0.516   s-0.213-0.568-0.404-0.568c-0.185,0-0.398,0.568-0.398,0.568s-0.833-0.287-1.072,0.516c0.287-0.111,0.398,0.064,0.432,0.21   c0.047,0.205-0.17,0.346-0.385,0.428c-0.27,0.094-0.486,0.07-0.652-0.053c-0.162-0.129-0.193-0.326,0.176-0.451   c-0.158-0.146-0.383-0.316-0.576-0.135c-0.32-0.303-0.529-0.287-0.789-0.1c0.586,0.339,0.789,1.153,0.822,1.405   C49.016,44.868,50.435,45.038,51.417,45.038z"/>
	<path fill="none" stroke="#000000" stroke-width="0.1641" d="M49.049,44.72c0-0.258,1.357-0.419,2.34-0.419   c0.984,0,2.364,0.162,2.364,0.416"/>
	<g>
		
			<line fill="none" stroke="#231F20" stroke-width="0.1366" stroke-linejoin="round" x1="51.187" y1="44.353" x2="51.187" y2="44.974"/>
		
			<line fill="none" stroke="#231F20" stroke-width="0.1366" stroke-linejoin="round" x1="50.806" y1="44.394" x2="50.806" y2="44.938"/>
		
			<line fill="none" stroke="#231F20" stroke-width="0.1366" stroke-linejoin="round" x1="50.419" y1="44.405" x2="50.419" y2="44.915"/>
		
			<line fill="none" stroke="#231F20" stroke-width="0.1366" stroke-linejoin="round" x1="50.041" y1="44.45" x2="50.041" y2="44.88"/>
		
			<line fill="none" stroke="#231F20" stroke-width="0.1366" stroke-linejoin="round" x1="49.66" y1="44.481" x2="49.66" y2="44.851"/>
	</g>
	
		<line fill="none" stroke="#231F20" stroke-width="0.1366" stroke-linejoin="round" x1="49.271" y1="44.563" x2="49.271" y2="44.821"/>
	<g>
		
			<line fill="none" stroke="#231F20" stroke-width="0.1366" stroke-linejoin="round" x1="51.569" y1="44.353" x2="51.569" y2="44.974"/>
		
			<line fill="none" stroke="#231F20" stroke-width="0.1366" stroke-linejoin="round" x1="51.95" y1="44.394" x2="51.95" y2="45.026"/>
		
			<line fill="none" stroke="#231F20" stroke-width="0.1366" stroke-linejoin="round" x1="52.334" y1="44.435" x2="52.334" y2="44.927"/>
		
			<line fill="none" stroke="#231F20" stroke-width="0.1366" stroke-linejoin="round" x1="52.721" y1="44.47" x2="52.721" y2="44.88"/>
		
			<line fill="none" stroke="#231F20" stroke-width="0.1366" stroke-linejoin="round" x1="53.101" y1="44.511" x2="53.101" y2="44.851"/>
	</g>
	
		<line fill="none" stroke="#231F20" stroke-width="0.1366" stroke-linejoin="round" x1="53.488" y1="44.563" x2="53.488" y2="44.821"/>
	<path fill="none" stroke="#231F20" stroke-width="0.1093" stroke-linejoin="round" d="M52.869,43.328   c-0.158-0.068-0.578,0.333,0.047,0.65"/>
	<path fill="none" stroke="#231F20" stroke-width="0.1093" stroke-linejoin="round" d="M49.962,43.322   c0.16-0.064,0.595,0.339-0.027,0.656"/>
	<path fill="none" stroke="#231F20" stroke-width="0.1093" stroke-linejoin="round" d="M49.537,43.439c0,0-0.375,0.23-0.215,0.439"/>
	<path fill="none" stroke="#231F20" stroke-width="0.1093" stroke-linejoin="round" d="M53.251,43.447c0,0,0.422,0.222,0.266,0.431"/>
	<path fill="none" stroke="#231F20" stroke-width="0.1641" stroke-linejoin="round" d="M49.051,44.595   c0.031,0.244,1.371,0.514,2.356,0.514c0.986,0,2.376-0.264,2.386-0.475"/>
	<path fill="#231F20" stroke="#231F20" stroke-width="0.1093" stroke-linejoin="round" d="M41.338,45.038   c0.982,0,2.399-0.17,2.432-0.404c0.037-0.252,0.248-1.066,0.836-1.405c-0.268-0.188-0.473-0.203-0.799,0.1   c-0.191-0.182-0.416-0.012-0.57,0.135c0.365,0.125,0.332,0.322,0.172,0.451c-0.168,0.123-0.346,0.146-0.621,0.053   c-0.213-0.082-0.467-0.223-0.416-0.428c0.035-0.146,0.145-0.322,0.438-0.21c-0.25-0.802-1.074-0.516-1.074-0.516   s-0.211-0.568-0.4-0.568c-0.187,0-0.404,0.568-0.404,0.568s-0.824-0.287-1.07,0.516c0.291-0.111,0.4,0.064,0.434,0.21   c0.053,0.205-0.164,0.346-0.383,0.428c-0.273,0.094-0.49,0.07-0.65-0.053c-0.172-0.129-0.195-0.326,0.176-0.451   c-0.162-0.146-0.385-0.316-0.576-0.135c-0.33-0.303-0.533-0.287-0.796-0.1c0.59,0.339,0.796,1.153,0.828,1.405   C38.93,44.868,40.357,45.038,41.338,45.038z"/>
	<path fill="none" stroke="#000000" stroke-width="0.1641" d="M38.967,44.72c0-0.258,1.357-0.419,2.34-0.419   c0.98,0,2.364,0.162,2.364,0.416"/>
	<g>
		
			<line fill="none" stroke="#231F20" stroke-width="0.1366" stroke-linejoin="round" x1="41.104" y1="44.353" x2="41.104" y2="44.974"/>
		
			<line fill="none" stroke="#231F20" stroke-width="0.1366" stroke-linejoin="round" x1="40.726" y1="44.394" x2="40.726" y2="44.938"/>
		
			<line fill="none" stroke="#231F20" stroke-width="0.1366" stroke-linejoin="round" x1="40.343" y1="44.405" x2="40.343" y2="44.915"/>
		
			<line fill="none" stroke="#231F20" stroke-width="0.1366" stroke-linejoin="round" x1="39.951" y1="44.45" x2="39.951" y2="44.88"/>
		
			<line fill="none" stroke="#231F20" stroke-width="0.1366" stroke-linejoin="round" x1="39.574" y1="44.481" x2="39.574" y2="44.851"/>
	</g>
	
		<line fill="none" stroke="#231F20" stroke-width="0.1366" stroke-linejoin="round" x1="39.189" y1="44.563" x2="39.189" y2="44.821"/>
	<g>
		
			<line fill="none" stroke="#231F20" stroke-width="0.1366" stroke-linejoin="round" x1="41.485" y1="44.353" x2="41.485" y2="44.974"/>
		
			<line fill="none" stroke="#231F20" stroke-width="0.1366" stroke-linejoin="round" x1="41.87" y1="44.394" x2="41.87" y2="45.026"/>
		
			<line fill="none" stroke="#231F20" stroke-width="0.1366" stroke-linejoin="round" x1="42.26" y1="44.435" x2="42.26" y2="44.927"/>
		
			<line fill="none" stroke="#231F20" stroke-width="0.1366" stroke-linejoin="round" x1="42.639" y1="44.47" x2="42.639" y2="44.88"/>
		
			<line fill="none" stroke="#231F20" stroke-width="0.1366" stroke-linejoin="round" x1="43.017" y1="44.511" x2="43.017" y2="44.851"/>
	</g>
	
		<line fill="none" stroke="#231F20" stroke-width="0.1366" stroke-linejoin="round" x1="43.402" y1="44.563" x2="43.402" y2="44.821"/>
	<path fill="none" stroke="#231F20" stroke-width="0.1093" stroke-linejoin="round" d="M42.783,43.328   c-0.15-0.068-0.572,0.333,0.053,0.65"/>
	<path fill="none" stroke="#231F20" stroke-width="0.1093" stroke-linejoin="round" d="M39.878,43.322   c0.158-0.064,0.593,0.339-0.027,0.656"/>
	<path fill="none" stroke="#231F20" stroke-width="0.1093" stroke-linejoin="round" d="M39.463,43.439c0,0-0.379,0.23-0.219,0.439"/>
	<path fill="none" stroke="#231F20" stroke-width="0.1093" stroke-linejoin="round" d="M43.166,43.447c0,0,0.422,0.222,0.266,0.431"/>
	<path fill="none" stroke="#231F20" stroke-width="0.1641" stroke-linejoin="round" d="M38.967,44.595   c0.039,0.244,1.376,0.514,2.356,0.514c0.986,0,2.38-0.264,2.386-0.475"/>
	<path fill="#231F20" stroke="#231F20" stroke-width="0.1093" stroke-linejoin="round" d="M46.31,48.089   c0.978,0,2.396-0.164,2.431-0.41c0.039-0.234,0.246-1.072,0.828-1.394c-0.256-0.182-0.463-0.203-0.789,0.105   c-0.191-0.193-0.414-0.018-0.572,0.117c0.369,0.133,0.338,0.34,0.166,0.462c-0.16,0.117-0.332,0.15-0.617,0.049   c-0.211-0.072-0.467-0.212-0.416-0.435c0.033-0.129,0.148-0.322,0.428-0.193c-0.234-0.808-1.062-0.519-1.062-0.519   s-0.211-0.57-0.4-0.57c-0.195,0-0.406,0.57-0.406,0.57s-0.824-0.289-1.066,0.519c0.291-0.129,0.404,0.064,0.432,0.193   c0.047,0.223-0.162,0.363-0.379,0.435c-0.277,0.102-0.492,0.068-0.656-0.049c-0.16-0.123-0.195-0.33,0.168-0.462   c-0.152-0.135-0.375-0.311-0.564-0.117c-0.332-0.309-0.537-0.287-0.798-0.105c0.592,0.322,0.798,1.16,0.832,1.394   C43.901,47.925,45.325,48.089,46.31,48.089z"/>
	<path fill="none" stroke="#000000" stroke-width="0.1641" d="M43.938,47.765c0-0.244,1.353-0.408,2.343-0.408   c0.978,0,2.362,0.154,2.362,0.408"/>
	<g>
		
			<line fill="none" stroke="#231F20" stroke-width="0.1366" stroke-linejoin="round" x1="46.078" y1="47.416" x2="46.078" y2="48.024"/>
		
			<line fill="none" stroke="#231F20" stroke-width="0.1366" stroke-linejoin="round" x1="45.689" y1="47.451" x2="45.689" y2="48.001"/>
		
			<line fill="none" stroke="#231F20" stroke-width="0.1366" stroke-linejoin="round" x1="45.309" y1="47.457" x2="45.309" y2="47.966"/>
		
			<line fill="none" stroke="#231F20" stroke-width="0.1366" stroke-linejoin="round" x1="44.924" y1="47.498" x2="44.924" y2="47.937"/>
		
			<line fill="none" stroke="#231F20" stroke-width="0.1366" stroke-linejoin="round" x1="44.548" y1="47.544" x2="44.548" y2="47.896"/>
	</g>
	
		<line fill="none" stroke="#231F20" stroke-width="0.1366" stroke-linejoin="round" x1="44.161" y1="47.609" x2="44.161" y2="47.87"/>
	<g>
		
			<line fill="none" stroke="#231F20" stroke-width="0.1366" stroke-linejoin="round" x1="46.46" y1="47.416" x2="46.46" y2="48.024"/>
		
			<line fill="none" stroke="#231F20" stroke-width="0.1366" stroke-linejoin="round" x1="46.843" y1="47.451" x2="46.843" y2="48.083"/>
		
			<line fill="none" stroke="#231F20" stroke-width="0.1366" stroke-linejoin="round" x1="47.218" y1="47.484" x2="47.218" y2="47.983"/>
		
			<line fill="none" stroke="#231F20" stroke-width="0.1366" stroke-linejoin="round" x1="47.608" y1="47.527" x2="47.608" y2="47.937"/>
		
			<line fill="none" stroke="#231F20" stroke-width="0.1366" stroke-linejoin="round" x1="47.991" y1="47.568" x2="47.991" y2="47.896"/>
	</g>
	<line fill="none" stroke="#231F20" stroke-width="0.1366" stroke-linejoin="round" x1="48.37" y1="47.609" x2="48.37" y2="47.87"/>
	<path fill="none" stroke="#231F20" stroke-width="0.1093" stroke-linejoin="round" d="M47.753,46.391   c-0.154-0.082-0.574,0.322,0.043,0.638"/>
	<path fill="none" stroke="#231F20" stroke-width="0.1093" stroke-linejoin="round" d="M44.846,46.379   c0.158-0.076,0.598,0.334-0.025,0.65"/>
	<path fill="none" stroke="#231F20" stroke-width="0.1093" stroke-linejoin="round" d="M44.431,46.496c0,0-0.375,0.229-0.219,0.445"/>
	<path fill="none" stroke="#231F20" stroke-width="0.1093" stroke-linejoin="round" d="M48.137,46.502c0,0,0.42,0.223,0.264,0.439"/>
	<g>
		<path fill="#231F20" d="M51.399,43.878c0.004,0.023,0.027,0.029,0.029-0.006c0.021-0.219,0.057-0.832,0.07-0.943    c0.018-0.158-0.185-0.152-0.169-0.006C51.337,43.033,51.37,43.654,51.399,43.878z"/>
		<path fill="#231F20" d="M52.176,43.141c-0.176,0-0.418,0.182-0.332,0.615c0.014,0.029,0.061,0.023,0.055-0.012    c0-0.041,0.006-0.398,0.3-0.523C52.234,43.217,52.23,43.141,52.176,43.141z"/>
		<path fill="#231F20" d="M50.638,43.141c0.178,0,0.418,0.182,0.332,0.615c-0.012,0.029-0.057,0.023-0.057-0.012    c0.004-0.041,0-0.398-0.303-0.523C50.579,43.217,50.583,43.141,50.638,43.141z"/>
		<path fill="#231F20" d="M49.098,43.505c-0.039,0.078-0.129,0.148-0.008,0.414c0.016,0.076-0.021,0.111-0.068,0.029    c-0.094-0.152-0.127-0.365-0.031-0.474C49.088,43.346,49.121,43.457,49.098,43.505z"/>
		<path fill="#231F20" d="M48.861,43.574c-0.027-0.093-0.066-0.197-0.197-0.234c-0.063-0.021-0.082,0.023-0.029,0.037    c0.047,0.016,0.113,0.051,0.176,0.162C48.869,43.644,48.873,43.607,48.861,43.574z"/>
		<path fill="#231F20" d="M53.722,43.505c0.035,0.078,0.119,0.148,0.006,0.414c-0.018,0.076,0.018,0.111,0.07,0.029    c0.083-0.152,0.119-0.365,0.025-0.474C53.73,43.346,53.701,43.457,53.722,43.505z"/>
		<path fill="#231F20" d="M53.95,43.574c0.029-0.093,0.066-0.197,0.205-0.234c0.068-0.021,0.082,0.023,0.025,0.037    c-0.043,0.016-0.109,0.051-0.174,0.162C53.944,43.644,53.94,43.607,53.95,43.574z"/>
		<path fill="#231F20" d="M41.315,43.878c0.004,0.023,0.027,0.029,0.033-0.006c0.02-0.219,0.059-0.832,0.07-0.943    c0.014-0.158-0.195-0.152-0.175-0.006C41.258,43.033,41.284,43.654,41.315,43.878z"/>
		<path fill="#231F20" d="M42.088,43.141c-0.166,0-0.416,0.182-0.324,0.615c0.006,0.029,0.057,0.023,0.055-0.012    c-0.004-0.041,0.002-0.398,0.296-0.523C42.154,43.217,42.15,43.141,42.088,43.141z"/>
		<path fill="#231F20" d="M40.558,43.141c0.18,0,0.418,0.182,0.334,0.615c-0.014,0.029-0.057,0.023-0.055-0.012    c0.004-0.041-0.002-0.398-0.309-0.523C40.497,43.217,40.499,43.141,40.558,43.141z"/>
		<path fill="#231F20" d="M39.018,43.505c-0.045,0.078-0.125,0.148-0.008,0.414c0.016,0.076-0.025,0.111-0.072,0.029    c-0.09-0.152-0.127-0.365-0.027-0.474C39.008,43.346,39.043,43.457,39.018,43.505z"/>
		<path fill="#231F20" d="M38.783,43.574c-0.035-0.093-0.074-0.197-0.199-0.234c-0.068-0.021-0.086,0.023-0.033,0.037    c0.055,0.016,0.109,0.051,0.167,0.162C38.789,43.644,38.791,43.607,38.783,43.574z"/>
		<path fill="#231F20" d="M43.634,43.505c0.043,0.078,0.121,0.148,0.016,0.414c-0.021,0.076,0.016,0.111,0.066,0.029    c0.082-0.152,0.121-0.365,0.025-0.474C43.65,43.346,43.611,43.457,43.634,43.505z"/>
		<path fill="#231F20" d="M43.87,43.574c0.029-0.093,0.068-0.197,0.205-0.234c0.061-0.021,0.076,0.023,0.025,0.037    c-0.045,0.016-0.107,0.051-0.174,0.162C43.866,43.644,43.86,43.607,43.87,43.574z"/>
		<path fill="#231F20" d="M46.285,46.933c0.006,0.025,0.031,0.031,0.033,0c0.021-0.238,0.057-0.83,0.072-0.952    c0.012-0.16-0.191-0.156-0.177-0.004C46.23,46.092,46.26,46.699,46.285,46.933z"/>
		<path fill="#231F20" d="M47.062,46.197c-0.172,0-0.414,0.182-0.332,0.615c0.012,0.035,0.064,0.027,0.059-0.012    c-0.002-0.041,0.006-0.398,0.301-0.533C47.125,46.262,47.121,46.197,47.062,46.197z"/>
		<path fill="#231F20" d="M45.523,46.197c0.18,0,0.418,0.182,0.34,0.615c-0.01,0.035-0.057,0.027-0.055-0.012    c0.004-0.041-0.002-0.398-0.307-0.533C45.469,46.262,45.471,46.197,45.523,46.197z"/>
		<g>
			<circle fill="#231F20" cx="50.942" cy="43.948" r="0.046"/>
			<path fill="#231F20" d="M50.71,44.166c-0.021,0-0.035-0.02-0.035-0.041c0-0.018,0.014-0.035,0.035-0.035     c0.018,0,0.033,0.018,0.033,0.035C50.743,44.146,50.728,44.166,50.71,44.166z"/>
			<path fill="#231F20" d="M50.384,44.201c-0.027,0-0.047-0.018-0.047-0.039c0-0.023,0.02-0.043,0.047-0.043     c0.016,0,0.035,0.02,0.035,0.043C50.419,44.183,50.4,44.201,50.384,44.201z"/>
			<path fill="#231F20" d="M49.992,44.253c-0.025,0-0.045-0.018-0.045-0.045c0-0.025,0.02-0.037,0.045-0.037     s0.049,0.012,0.049,0.037C50.041,44.236,50.017,44.253,49.992,44.253z"/>
			<path fill="#231F20" d="M49.619,44.312c-0.037,0-0.055-0.018-0.055-0.047s0.018-0.053,0.055-0.053     c0.027,0,0.051,0.023,0.051,0.053S49.646,44.312,49.619,44.312z"/>
			<path fill="#231F20" d="M49.23,44.394c-0.029,0-0.057-0.023-0.057-0.059c0-0.029,0.027-0.052,0.057-0.052     s0.051,0.023,0.051,0.052C49.281,44.37,49.26,44.394,49.23,44.394z"/>
			<path fill="#231F20" d="M52.102,44.166c0.025,0,0.045-0.02,0.045-0.041c0-0.018-0.02-0.035-0.045-0.035     c-0.02,0-0.033,0.018-0.033,0.035C52.069,44.146,52.083,44.166,52.102,44.166z"/>
			<path fill="#231F20" d="M52.441,44.201c0.02,0,0.039-0.018,0.039-0.039c0-0.023-0.02-0.043-0.039-0.043     c-0.023,0-0.045,0.02-0.045,0.043C52.396,44.183,52.418,44.201,52.441,44.201z"/>
			<path fill="#231F20" d="M52.826,44.253c0.018,0,0.043-0.018,0.043-0.045c0-0.025-0.025-0.037-0.043-0.037     c-0.031,0-0.051,0.012-0.051,0.037C52.775,44.236,52.795,44.253,52.826,44.253z"/>
			<path fill="#231F20" d="M53.195,44.312c0.031,0,0.057-0.018,0.057-0.047s-0.025-0.053-0.057-0.053     c-0.023,0-0.047,0.023-0.047,0.053S53.171,44.312,53.195,44.312z"/>
			<path fill="#231F20" d="M53.593,44.394c0.029,0,0.053-0.023,0.053-0.059c0-0.029-0.023-0.052-0.053-0.052     c-0.031,0-0.057,0.023-0.057,0.052C53.537,44.37,53.562,44.394,53.593,44.394z"/>
			<circle fill="#231F20" cx="51.875" cy="43.948" r="0.046"/>
			<path fill="#231F20" d="M40.858,43.994c-0.021,0-0.043-0.021-0.043-0.047c0-0.023,0.021-0.045,0.043-0.045     c0.029,0,0.047,0.021,0.047,0.045C40.905,43.972,40.888,43.994,40.858,43.994z"/>
			<path fill="#231F20" d="M40.628,44.166c-0.023,0-0.039-0.02-0.039-0.041c0-0.018,0.016-0.035,0.039-0.035     s0.035,0.018,0.035,0.035C40.663,44.146,40.651,44.166,40.628,44.166z"/>
			<path fill="#231F20" d="M40.296,44.201c-0.021,0-0.039-0.018-0.039-0.039c0-0.023,0.018-0.043,0.039-0.043     c0.023,0,0.045,0.02,0.045,0.043C40.341,44.183,40.32,44.201,40.296,44.201z"/>
			<path fill="#231F20" d="M39.91,44.253c-0.025,0-0.047-0.018-0.047-0.045c0-0.025,0.021-0.037,0.047-0.037     c0.021,0,0.041,0.012,0.041,0.037C39.951,44.236,39.931,44.253,39.91,44.253z"/>
			<path fill="#231F20" d="M39.535,44.312c-0.029,0-0.051-0.018-0.051-0.047s0.021-0.053,0.051-0.053     c0.023,0,0.048,0.023,0.048,0.053S39.559,44.312,39.535,44.312z"/>
			<path fill="#231F20" d="M39.145,44.394c-0.031,0-0.055-0.023-0.055-0.059c0-0.029,0.023-0.052,0.055-0.052     s0.055,0.023,0.055,0.052C39.199,44.37,39.176,44.394,39.145,44.394z"/>
			<path fill="#231F20" d="M42.03,44.166c0.021,0,0.033-0.02,0.033-0.041c0-0.018-0.012-0.035-0.033-0.035     c-0.023,0-0.045,0.018-0.045,0.035C41.985,44.146,42.006,44.166,42.03,44.166z"/>
			<path fill="#231F20" d="M42.352,44.201c0.021,0,0.045-0.018,0.045-0.039c0-0.023-0.023-0.043-0.045-0.043     s-0.037,0.02-0.037,0.043C42.314,44.183,42.33,44.201,42.352,44.201z"/>
			<path fill="#231F20" d="M42.736,44.253c0.027,0,0.049-0.018,0.049-0.045c0-0.025-0.021-0.037-0.049-0.037     c-0.025,0-0.043,0.012-0.043,0.037C42.693,44.236,42.711,44.253,42.736,44.253z"/>
			<path fill="#231F20" d="M43.119,44.312c0.027,0,0.047-0.018,0.047-0.047s-0.02-0.053-0.047-0.053s-0.049,0.023-0.049,0.053     S43.091,44.312,43.119,44.312z"/>
			<path fill="#231F20" d="M43.509,44.394c0.033,0,0.051-0.023,0.051-0.059c0-0.029-0.018-0.052-0.051-0.052     c-0.035,0-0.055,0.023-0.055,0.052C43.455,44.37,43.474,44.394,43.509,44.394z"/>
			<circle fill="#231F20" cx="41.793" cy="43.948" r="0.046"/>
			<path fill="#231F20" d="M45.832,47.041c-0.023,0-0.045-0.014-0.045-0.041c0-0.02,0.021-0.041,0.045-0.041     c0.029,0,0.043,0.021,0.043,0.041C45.875,47.027,45.861,47.041,45.832,47.041z"/>
			<ellipse fill="#231F20" cx="45.596" cy="47.175" rx="0.041" ry="0.035"/>
			<path fill="#231F20" d="M45.266,47.257c-0.023,0-0.035-0.023-0.035-0.047s0.012-0.039,0.035-0.039     c0.02,0,0.041,0.016,0.041,0.039S45.286,47.257,45.266,47.257z"/>
			<path fill="#231F20" d="M44.877,47.316c-0.025,0-0.043-0.027-0.043-0.051c0-0.031,0.018-0.049,0.043-0.049     c0.027,0,0.047,0.018,0.047,0.049C44.924,47.289,44.905,47.316,44.877,47.316z"/>
			<path fill="#231F20" d="M44.503,47.369c-0.029,0-0.053-0.018-0.053-0.049s0.023-0.051,0.053-0.051     c0.027,0,0.049,0.02,0.049,0.051S44.53,47.369,44.503,47.369z"/>
			<path fill="#231F20" d="M44.114,47.451c-0.029,0-0.055-0.029-0.055-0.053c0-0.029,0.025-0.053,0.055-0.053     s0.055,0.023,0.055,0.053C44.169,47.421,44.144,47.451,44.114,47.451z"/>
			<path fill="#231F20" d="M47,47.21c0.02,0,0.035-0.018,0.035-0.035S47.019,47.14,47,47.14c-0.025,0-0.037,0.018-0.037,0.035     S46.974,47.21,47,47.21z"/>
			<path fill="#231F20" d="M47.325,47.257c0.021,0,0.039-0.023,0.039-0.047s-0.018-0.039-0.039-0.039s-0.041,0.016-0.041,0.039     S47.304,47.257,47.325,47.257z"/>
			<path fill="#231F20" d="M47.708,47.316c0.025,0,0.047-0.027,0.047-0.051c0-0.031-0.021-0.049-0.047-0.049     c-0.021,0-0.041,0.018-0.041,0.049C47.667,47.289,47.687,47.316,47.708,47.316z"/>
			<path fill="#231F20" d="M48.088,47.369c0.031,0,0.055-0.018,0.055-0.049s-0.023-0.051-0.055-0.051     c-0.025,0-0.043,0.02-0.043,0.051S48.063,47.369,48.088,47.369z"/>
			<path fill="#231F20" d="M48.475,47.451c0.029,0,0.057-0.029,0.057-0.053c0-0.029-0.027-0.053-0.057-0.053     s-0.053,0.023-0.053,0.053C48.422,47.421,48.446,47.451,48.475,47.451z"/>
			<path fill="#231F20" d="M46.763,47.041c-0.025,0-0.051-0.014-0.051-0.041c0-0.02,0.025-0.041,0.051-0.041S46.812,46.98,46.812,47     C46.812,47.027,46.789,47.041,46.763,47.041z"/>
		</g>
		<path fill="#231F20" d="M43.993,46.559c-0.045,0.072-0.127,0.137-0.016,0.417c0.02,0.07-0.018,0.109-0.074,0.027    c-0.084-0.138-0.121-0.384-0.027-0.48C43.976,46.408,44.009,46.508,43.993,46.559z"/>
		<path fill="#231F20" d="M43.751,46.617c-0.031-0.086-0.064-0.186-0.199-0.221c-0.066-0.021-0.08,0.023-0.031,0.035    c0.043,0.023,0.113,0.053,0.176,0.152C43.755,46.689,43.763,46.656,43.751,46.617z"/>
		<path fill="#231F20" d="M48.608,46.559c0.041,0.072,0.121,0.137,0.014,0.417c-0.02,0.07,0.014,0.109,0.063,0.027    c0.086-0.138,0.123-0.384,0.025-0.48C48.622,46.408,48.583,46.508,48.608,46.559z"/>
		<path fill="#231F20" d="M48.842,46.617c0.027-0.086,0.059-0.186,0.203-0.221c0.061-0.021,0.076,0.023,0.029,0.035    c-0.049,0.023-0.121,0.053-0.18,0.152C48.834,46.689,48.83,46.656,48.842,46.617z"/>
	</g>
	<path fill="none" stroke="#231F20" stroke-width="0.1641" stroke-linejoin="round" d="M43.942,47.65   c0.033,0.24,1.367,0.521,2.351,0.521c0.983,0,2.377-0.275,2.389-0.492"/>
	<polygon fill="#231F20" points="75.422,45.471 65.746,42.538 56.068,45.471 56.068,44.685 65.746,41.737 75.422,44.685  "/>
	<polygon fill="#231F20" points="75.422,47.011 65.746,44.072 56.068,47.011 56.068,46.215 65.746,43.268 75.422,46.215  "/>
	<polygon fill="#231F20" points="75.422,48.54 65.746,45.6 56.068,48.54 56.068,47.749 65.746,44.813 75.422,47.749  "/>
	<polygon points="80.402,95.487 78.356,96.236 78.085,95.616 80.029,93.795 81.593,94.925 81.659,95.671  "/>
	<polygon points="33.747,96.236 34.052,95.616 31.293,94.047 30.388,95.224  "/>
	<path fill="none" stroke="#231F20" stroke-width="0.6016" d="M49.156,79.693c-0.388-0.389-0.478-0.389-0.478-0.389   c-0.917,0.078-0.828,0.078-0.828,0.078c-9.998,1.48-17.974,5.485-21.244,10.641l0.039,0.146c0.886,2.229,2.674,3.262,3.742,4.806   c0.1,0.137,0.1,0.137,0.1,0.137l0.307-0.336c3.506-4.671,10.279-7.985,18.522-9.355l0.018,0.061   C49.334,85.481,49.984,80.514,49.156,79.693z"/>
	<path fill="none" stroke="#000000" stroke-width="0.6016" d="M23.464,92.126l2.641,2.559l-1.071,2.788   c5.048-0.176,8.713-0.662,8.713-1.236c0-0.339-1.235-0.644-3.26-0.872l-3.014-3.549C26.203,91.954,24.86,92.056,23.464,92.126z"/>
	<path fill="#FFFFFF" stroke="#000000" stroke-width="0.1822" d="M51.469,85.075"/>
	<path fill="#FFFFFF" stroke="#000000" stroke-width="0.1822" d="M49.404,85.466"/>
	<path fill="none" stroke="#231F20" stroke-width="0.6016" d="M51.567,85.069c-0.033,0-0.064,0.006-0.098,0.006   c-0.361-2.641-0.361-2.658-0.361-2.658l-1.384,0.253l-0.32,2.796l-0.07,0.016c-1.134,0.402-1.872,1.028-1.796,1.626   c0.102,0.843,1.792,1.323,3.77,1.083c1.971-0.25,3.484-1.136,3.381-1.985C54.595,85.45,53.251,84.993,51.567,85.069"/>
	<path fill="#FFFFFF" stroke="#000000" stroke-width="0.1822" d="M50.907,79.871v-0.098c-0.006-0.068-0.012-0.133-0.016-0.203   L50.907,79.871z"/>
	<path fill="#FFFFFF" stroke="#000000" stroke-width="0.1822" d="M50.907,79.773c0,0.031,0,0.061,0.004,0.098"/>
	<path fill="#FFFFFF" stroke="#FFFFFF" stroke-width="0.1822" d="M50.907,79.773"/>
	<path fill="#231F20" stroke="#231F20" stroke-width="0.1822" d="M49.635,82.67c0.183-0.013,1.101-0.153,1.347-0.214L49.635,82.67"/>
	<path fill="none" stroke="#231F20" stroke-width="0.6016" d="M85.454,90.164l0.049-0.141c-3.271-5.163-11.246-9.164-21.248-10.646   c0,0,0.086,0-0.826-0.076c0,0-0.09,0-0.482,0.387c-0.822,0.824-0.453,2.397-0.344,3.705c0.172,2.087,0.172,2.087,0.172,2.087   l0.012-0.059c8.249,1.368,14.896,4.685,18.399,9.355l0.307,0.332c0,0,0,0,0.104-0.137C82.666,93.426,84.575,92.396,85.454,90.164z"/>
	<path fill="none" stroke="#000000" stroke-width="0.6016" d="M88.641,92.126c-1.392-0.07-2.741-0.176-4.005-0.316l-3.018,3.555   c-2.024,0.223-3.262,0.527-3.262,0.872c0,0.574,3.672,1.061,8.72,1.23l-1.072-2.788L88.641,92.126z"/>
	<path fill="#FFFFFF" stroke="#000000" stroke-width="0.1822" d="M61.717,85.28"/>
	<path fill="#FFFFFF" stroke="#000000" stroke-width="0.1822" d="M60.636,85.069c-0.041-0.006-0.082-0.006-0.125-0.006"/>
	<path fill="#FFFFFF" stroke="#FFFFFF" stroke-width="0.1822" d="M60.511,85.063c-0.023,0-0.047,0-0.074,0"/>
	<path fill="none" stroke="#231F20" stroke-width="0.6016" d="M60.437,85.063c-1.636-0.053-2.924,0.398-3.01,1.136   c-0.113,0.85,1.402,1.739,3.377,1.985c1.978,0.24,3.662-0.236,3.768-1.091c0.072-0.561-0.597-1.159-1.651-1.558"/>
	<path fill="none" stroke="#231F20" stroke-width="0.6016" d="M62.92,85.536c-0.045-0.021-0.094-0.045-0.145-0.057l-0.055-0.014   c-0.242-2.797-0.242-2.797-0.242-2.797l0,0l-1.421-0.234l-0.346,2.648"/>
	<path fill="#FFFFFF" stroke="#000000" stroke-width="0.1822" d="M61.717,85.28"/>
	<path fill="#FFFFFF" stroke="#FFFFFF" stroke-width="0.1822" d="M61.214,79.566c-0.006,0.074-0.012,0.133-0.016,0.203v0.102   L61.214,79.566z"/>
	<g>
		<path fill="none" stroke="#231F20" stroke-width="0.6016" d="M56.053,78.634c-1.872,0-3.621,0.152-5.165,0.439    c0,0.614,0,0.614,0,0.614l0.023,0.184c0.109,1.925,0.632,5.134,0.632,5.134c1.384-0.193,2.905-0.297,4.509-0.297"/>
		<path fill="none" stroke="#231F20" stroke-width="0.6016" d="M56.055,78.628c1.868,0,3.629,0.152,5.171,0.443    c-0.012,0.495-0.012,0.495-0.012,0.495l-0.016,0.203c-0.094,1.917-0.256,3.709-0.486,5.313c0,0-3.057-0.377-4.657-0.377"/>
	</g>
	<path fill="#231F20" stroke="#231F20" stroke-width="0.1822" d="M61.907,82.599c0.193,0.035,0.379,0.059,0.572,0.07l-1.354-0.217   C61.37,82.511,61.627,82.563,61.907,82.599z"/>
	<path fill="none" stroke="#000000" stroke-width="1.0929" d="M56.053,111.444c29.819,0,53.99-24.171,53.99-53.992   c0-29.823-24.171-53.994-53.99-53.994c-29.817,0-53.986,24.171-53.986,53.994C2.066,87.273,26.236,111.444,56.053,111.444z"/>
	<g>
		<path fill="#231F20" stroke="#231F20" stroke-width="0.045" d="M21.698,83.91l1.712-1.347c0.33-0.258,0.525-0.439,0.583-0.537    c0.061-0.098,0.086-0.207,0.072-0.33c-0.014-0.119-0.107-0.293-0.283-0.516l0.156-0.123l1.956,2.487l-0.156,0.121    c-0.178-0.225-0.324-0.355-0.439-0.395c-0.115-0.041-0.226-0.041-0.333-0.006c-0.109,0.033-0.328,0.178-0.658,0.439l-3.969,3.121    c-0.328,0.258-0.523,0.436-0.583,0.537c-0.061,0.098-0.084,0.207-0.07,0.33c0.014,0.118,0.107,0.292,0.281,0.515l-0.156,0.123    l-1.767-2.249c-0.462-0.585-0.75-1.054-0.863-1.409c-0.111-0.351-0.098-0.718,0.043-1.104c0.139-0.387,0.393-0.725,0.761-1.015    c0.449-0.354,0.921-0.518,1.417-0.492c0.314,0.021,0.633,0.139,0.957,0.359l1.15-2.776c0.145-0.362,0.225-0.604,0.236-0.722    c0.016-0.168-0.021-0.32-0.113-0.459l0.164-0.131l1.202,1.526l-1.546,3.736L21.698,83.91z M18.725,86.25l2.649-2.084l-0.156-0.203    c-0.259-0.332-0.492-0.547-0.697-0.65c-0.205-0.105-0.441-0.127-0.712-0.061c-0.271,0.063-0.566,0.219-0.882,0.471    c-0.46,0.363-0.736,0.714-0.82,1.06c-0.086,0.344,0.02,0.707,0.32,1.086L18.725,86.25z"/>
		<path fill="#231F20" stroke="#231F20" stroke-width="0.045" d="M14.276,79.729l2.76-1.521l-0.059-0.105    c-0.191-0.344-0.464-0.519-0.818-0.522c-0.355-0.006-0.808,0.112-1.358,0.362l-0.08-0.145l3.549-1.957l0.08,0.142    c-0.369,0.244-0.646,0.484-0.835,0.725c-0.189,0.24-0.289,0.451-0.299,0.633s0.057,0.399,0.199,0.657l1.903-1.05    c0.373-0.205,0.593-0.344,0.662-0.414c0.07-0.07,0.113-0.154,0.129-0.25c0.016-0.102-0.02-0.223-0.105-0.378l-0.178-0.322    c-0.277-0.502-0.644-0.826-1.103-0.967c-0.458-0.145-1.023-0.117-1.694,0.086l-0.082-0.15l2.286-0.942l2.563,4.646l-0.174,0.098    l-0.1-0.182c-0.086-0.154-0.189-0.26-0.314-0.318c-0.084-0.043-0.193-0.047-0.328-0.021c-0.096,0.014-0.318,0.115-0.66,0.305    l-4.46,2.462c-0.313,0.172-0.498,0.281-0.561,0.336c-0.103,0.089-0.167,0.188-0.193,0.294c-0.039,0.152-0.01,0.316,0.086,0.492    l0.099,0.178l-0.173,0.098l-2.483-4.501l1.999-1.104l0.08,0.143c-0.445,0.35-0.736,0.654-0.873,0.91    c-0.137,0.253-0.184,0.538-0.141,0.847c0.02,0.184,0.145,0.477,0.371,0.887L14.276,79.729z"/>
		<path fill="#231F20" stroke="#231F20" stroke-width="0.045" d="M10.892,73.633l3.472-4.468l-3.107,1.112    c-0.441,0.158-0.722,0.316-0.843,0.471c-0.16,0.214-0.182,0.478-0.059,0.8l-0.188,0.064l-0.685-1.919l0.188-0.066    c0.127,0.234,0.238,0.381,0.332,0.441c0.093,0.059,0.218,0.09,0.378,0.082c0.16-0.002,0.414-0.066,0.763-0.191l6.063-2.175    l0.053,0.148l-4.681,6.103l4.651-1.667c0.426-0.152,0.683-0.332,0.777-0.539s0.104-0.414,0.031-0.613l-0.051-0.141l0.188-0.066    l0.74,2.062l-0.188,0.066c-0.117-0.316-0.281-0.506-0.488-0.574c-0.207-0.062-0.508-0.026-0.898,0.113l-5.132,1.839l-0.154,0.201    c-0.156,0.197-0.248,0.354-0.277,0.469c-0.029,0.117-0.016,0.264,0.039,0.439l-0.187,0.066L10.892,73.633z"/>
		<path fill="#231F20" stroke="#231F20" stroke-width="0.045" d="M8.186,64.306l2.518-0.546l0.035,0.184    c-0.613,0.214-1.08,0.526-1.398,0.94c-0.318,0.414-0.439,0.814-0.361,1.202c0.061,0.309,0.209,0.527,0.447,0.664    c0.238,0.133,0.49,0.176,0.753,0.121c0.168-0.031,0.313-0.09,0.43-0.178c0.16-0.119,0.304-0.293,0.439-0.516    c0.096-0.166,0.248-0.532,0.461-1.101c0.294-0.795,0.613-1.356,0.951-1.681c0.339-0.32,0.759-0.531,1.259-0.627    c0.634-0.127,1.218-0.037,1.751,0.264c0.535,0.305,0.863,0.756,0.982,1.358c0.037,0.191,0.049,0.375,0.033,0.555    c-0.014,0.178-0.064,0.41-0.148,0.693c-0.047,0.158-0.061,0.28-0.043,0.368c0.016,0.078,0.07,0.152,0.162,0.223    c0.094,0.074,0.223,0.121,0.388,0.146l0.031,0.158l-2.859,0.568l-0.033-0.162c0.779-0.289,1.343-0.66,1.688-1.115    c0.349-0.456,0.48-0.899,0.396-1.329c-0.066-0.332-0.232-0.573-0.498-0.726c-0.268-0.152-0.552-0.195-0.853-0.137    c-0.18,0.035-0.346,0.107-0.498,0.215c-0.154,0.113-0.289,0.258-0.41,0.442c-0.119,0.188-0.262,0.498-0.427,0.939    c-0.23,0.616-0.441,1.065-0.633,1.354c-0.191,0.283-0.421,0.52-0.691,0.707c-0.27,0.186-0.582,0.313-0.937,0.384    c-0.605,0.119-1.155,0.047-1.649-0.222c-0.494-0.27-0.796-0.67-0.904-1.209c-0.037-0.197-0.047-0.395-0.023-0.589    c0.016-0.148,0.064-0.336,0.146-0.559c0.08-0.227,0.113-0.379,0.098-0.461c-0.016-0.074-0.057-0.129-0.125-0.16    c-0.068-0.033-0.221-0.047-0.455-0.045L8.186,64.306z"/>
		<path fill="#231F20" stroke="#231F20" stroke-width="0.045" d="M7.631,58.425c0.234,0.025,0.383,0.059,0.445,0.1    c0.063,0.043,0.098,0.102,0.104,0.179c0.006,0.082-0.047,0.227-0.156,0.441c-0.109,0.211-0.182,0.391-0.217,0.535    c-0.047,0.191-0.066,0.387-0.053,0.586c0.037,0.548,0.285,0.987,0.74,1.315c0.457,0.332,0.992,0.475,1.608,0.434    c0.361-0.023,0.688-0.111,0.976-0.262c0.293-0.148,0.551-0.354,0.779-0.611c0.227-0.26,0.494-0.679,0.802-1.263    c0.219-0.412,0.4-0.705,0.545-0.87c0.143-0.173,0.296-0.302,0.462-0.387c0.164-0.092,0.34-0.141,0.521-0.152    c0.306-0.021,0.582,0.061,0.826,0.245c0.246,0.188,0.38,0.447,0.402,0.781c0.029,0.439-0.158,0.863-0.562,1.271    c-0.404,0.403-1.011,0.702-1.819,0.89l0.012,0.162l2.911-0.195l-0.01-0.164c-0.164-0.043-0.285-0.107-0.369-0.189    c-0.082-0.082-0.125-0.164-0.131-0.244c-0.006-0.09,0.023-0.211,0.09-0.358c0.121-0.27,0.199-0.496,0.236-0.672    s0.051-0.359,0.037-0.553c-0.039-0.611-0.305-1.103-0.796-1.474c-0.492-0.367-1.058-0.531-1.702-0.488    c-0.51,0.035-0.951,0.188-1.332,0.462c-0.375,0.279-0.761,0.794-1.159,1.544c-0.283,0.535-0.482,0.879-0.598,1.031    c-0.164,0.203-0.33,0.354-0.501,0.456c-0.129,0.07-0.279,0.109-0.449,0.119c-0.269,0.021-0.513-0.053-0.732-0.221    c-0.218-0.163-0.337-0.399-0.359-0.71c-0.025-0.398,0.145-0.781,0.515-1.147c0.367-0.369,0.871-0.617,1.507-0.754l-0.012-0.188    l-2.569,0.221L7.631,58.425z"/>
		<path fill="#231F20" stroke="#231F20" stroke-width="0.045" d="M8.354,53.902l3.141,0.242l0.01-0.121    c0.029-0.391-0.102-0.687-0.395-0.882c-0.294-0.199-0.74-0.35-1.335-0.443l0.012-0.164l4.041,0.31l-0.012,0.164    c-0.443,0-0.808,0.051-1.097,0.146c-0.289,0.096-0.486,0.217-0.595,0.363c-0.107,0.146-0.174,0.369-0.195,0.662l2.169,0.168    c0.421,0.031,0.683,0.037,0.779,0.016c0.098-0.02,0.18-0.066,0.244-0.141c0.068-0.072,0.107-0.195,0.121-0.371l0.029-0.369    c0.045-0.572-0.086-1.042-0.39-1.416c-0.307-0.371-0.794-0.656-1.464-0.857l0.014-0.169l2.428,0.464l-0.41,5.294l-0.199-0.014    l0.018-0.205c0.014-0.18-0.016-0.324-0.088-0.441c-0.047-0.08-0.134-0.148-0.261-0.199c-0.09-0.043-0.33-0.078-0.722-0.105    L9.115,55.44c-0.352-0.025-0.57-0.035-0.65-0.025c-0.138,0.021-0.244,0.068-0.324,0.141c-0.117,0.105-0.182,0.258-0.197,0.459    l-0.016,0.207l-0.199-0.02l0.396-5.122l2.276,0.176l-0.012,0.16c-0.564,0.051-0.972,0.145-1.226,0.281    c-0.256,0.141-0.451,0.351-0.586,0.632c-0.08,0.164-0.139,0.476-0.176,0.943L8.354,53.902z"/>
		<path fill="#231F20" stroke="#231F20" stroke-width="0.045" d="M14.612,44.606c0.558,0.279,0.972,0.535,1.238,0.761    c0.265,0.23,0.443,0.465,0.533,0.71c0.09,0.242,0.096,0.52,0.02,0.835l-0.121,0.5c-0.068,0.283-0.129,0.457-0.18,0.523    c-0.076,0.09-0.171,0.141-0.285,0.148c-0.115,0.01-0.363-0.031-0.748-0.125l-4.796-1.163c-0.38-0.094-0.613-0.166-0.693-0.223    c-0.117-0.074-0.191-0.156-0.227-0.248c-0.053-0.123-0.059-0.27-0.016-0.445l0.063-0.26l-0.193-0.047l-0.773,3.188l0.193,0.047    l0.049-0.201c0.041-0.164,0.109-0.289,0.207-0.371c0.096-0.078,0.197-0.125,0.301-0.133c0.105-0.01,0.353,0.031,0.742,0.125    l4.95,1.2c0.382,0.094,0.613,0.166,0.695,0.223c0.117,0.07,0.193,0.152,0.227,0.244c0.053,0.121,0.059,0.27,0.016,0.441    l-0.049,0.203l0.195,0.047l1.286-5.306l-2.586-0.867L14.612,44.606z"/>
		<path fill="#231F20" stroke="#231F20" stroke-width="0.045" d="M17.903,40.312c0.266,0.023,0.416,0.039,0.451,0.043    c0.076,0.012,0.144,0.033,0.207,0.059c0.107,0.045,0.174,0.113,0.203,0.199c0.041,0.121,0.014,0.291-0.082,0.511l-0.049,0.117    l0.184,0.078l1.179-2.741L19.812,38.5c-0.094,0.166-0.215,0.273-0.363,0.32c-0.199,0.066-0.619,0.074-1.259,0.023l-6.703-0.464    l-0.033,0.078l4.798,4.46c0.465,0.428,0.753,0.744,0.873,0.949c0.117,0.209,0.152,0.42,0.104,0.638l0.184,0.078l0.808-1.878    l-0.184-0.08c-0.152,0.281-0.273,0.447-0.363,0.501c-0.15,0.084-0.326,0.084-0.527-0.004c-0.152-0.064-0.328-0.188-0.527-0.363    l-0.586-0.544l0.851-1.979L17.903,40.312z M15.705,41.911l-2.052-1.907l2.786,0.199L15.705,41.911z"/>
		<path fill="#231F20" stroke="#231F20" stroke-width="0.045" d="M15.264,32.456l2.651,1.7l0.066-0.102    c0.213-0.332,0.236-0.656,0.07-0.97c-0.164-0.313-0.486-0.654-0.966-1.021l0.09-0.137l3.41,2.187l-0.088,0.138    c-0.388-0.208-0.732-0.337-1.033-0.39c-0.3-0.053-0.533-0.039-0.699,0.039c-0.164,0.078-0.326,0.242-0.484,0.49l1.829,1.173    c0.359,0.229,0.585,0.357,0.681,0.384c0.096,0.025,0.189,0.023,0.283-0.01c0.092-0.033,0.186-0.123,0.281-0.269l0.199-0.311    c0.309-0.484,0.416-0.958,0.324-1.433c-0.093-0.471-0.388-0.953-0.884-1.446l0.093-0.145l1.919,1.562l-2.865,4.468l-0.166-0.107    l0.109-0.174c0.095-0.152,0.14-0.295,0.132-0.43c-0.004-0.093-0.05-0.193-0.136-0.298c-0.061-0.08-0.256-0.223-0.586-0.436    l-4.289-2.748c-0.298-0.191-0.486-0.303-0.56-0.332c-0.131-0.047-0.248-0.059-0.352-0.031c-0.152,0.039-0.283,0.143-0.392,0.313    l-0.111,0.173l-0.168-0.107l2.774-4.33l1.925,1.233l-0.09,0.137c-0.518-0.223-0.923-0.336-1.212-0.334    c-0.289,0.002-0.562,0.096-0.816,0.281c-0.148,0.104-0.347,0.354-0.599,0.748L15.264,32.456z"/>
		<path fill="#231F20" stroke="#231F20" stroke-width="0.045" d="M19.763,26.373c0.322-0.361,0.66-0.529,1.013-0.506    c0.353,0.023,0.75,0.23,1.188,0.619c0.303,0.269,0.51,0.531,0.619,0.787c0.109,0.255,0.132,0.492,0.066,0.712    c-0.066,0.221-0.238,0.486-0.52,0.8l-0.17,0.191l-2.52-2.243L19.763,26.373z M22.533,28.952l3.949,0.865l1.294-1.455l-0.16-0.138    c-0.117,0.115-0.262,0.181-0.432,0.193c-0.117,0.008-0.367-0.027-0.75-0.105L23.5,27.669c0.158-0.357,0.218-0.693,0.181-1.005    c-0.063-0.492-0.304-0.929-0.732-1.308c-0.349-0.313-0.728-0.501-1.132-0.572c-0.404-0.068-0.771-0.018-1.097,0.154    c-0.328,0.173-0.74,0.539-1.234,1.095l-1.901,2.138l0.148,0.133c0.188-0.213,0.34-0.336,0.457-0.369s0.23-0.031,0.337,0.012    c0.107,0.041,0.318,0.201,0.633,0.482l3.771,3.354c0.313,0.279,0.494,0.469,0.547,0.57c0.055,0.1,0.072,0.21,0.055,0.33    s-0.123,0.287-0.313,0.502l0.148,0.133l2.102-2.362l-0.15-0.132c-0.187,0.21-0.339,0.335-0.457,0.369s-0.229,0.029-0.338-0.012    c-0.107-0.043-0.318-0.205-0.63-0.482l-1.628-1.449L22.533,28.952z"/>
		<path fill="#231F20" stroke="#231F20" stroke-width="0.045" d="M27.585,19.246c0.326-0.236,0.65-0.304,0.968-0.207    c0.32,0.097,0.648,0.38,0.983,0.847c0.34,0.468,0.512,0.874,0.51,1.216c-0.002,0.344-0.154,0.623-0.455,0.839    c-0.043,0.033-0.107,0.072-0.193,0.127l-1.962-2.715L27.585,19.246z M30.786,21.444c0.281-0.361,0.414-0.759,0.406-1.195    c-0.008-0.437-0.16-0.859-0.455-1.265c-0.35-0.482-0.794-0.769-1.339-0.865c-0.545-0.098-1.175,0.115-1.896,0.636l-2.179,1.573    l0.117,0.162c0.23-0.168,0.406-0.256,0.531-0.262c0.121-0.008,0.232,0.02,0.332,0.084c0.098,0.063,0.27,0.268,0.518,0.609    l2.945,4.074c0.246,0.342,0.385,0.57,0.414,0.682c0.027,0.113,0.021,0.224-0.023,0.339c-0.043,0.115-0.18,0.256-0.414,0.426    l0.115,0.162l2.543-1.839l-0.117-0.162c-0.225,0.164-0.4,0.25-0.523,0.258c-0.125,0.01-0.234-0.018-0.332-0.084    c-0.096-0.064-0.27-0.27-0.515-0.613l-1.255-1.737C30.228,22.018,30.603,21.69,30.786,21.444z"/>
		<path fill="#231F20" stroke="#231F20" stroke-width="0.045" d="M34.801,15.057c0.307,0.078,0.64,0.311,1.005,0.693    c0.365,0.383,0.777,1.029,1.241,1.938c0.391,0.765,0.641,1.419,0.748,1.962c0.111,0.542,0.101,0.982-0.025,1.321    c-0.102,0.264-0.293,0.467-0.57,0.609c-0.414,0.21-0.835,0.177-1.263-0.098c-0.617-0.395-1.224-1.177-1.821-2.351    c-0.503-0.987-0.783-1.799-0.835-2.436c-0.066-0.777,0.152-1.292,0.656-1.55C34.206,15.008,34.497,14.979,34.801,15.057z     M32.162,16.855c-0.207,0.964-0.049,1.958,0.473,2.981c0.462,0.909,1.077,1.589,1.843,2.034c0.966,0.564,1.946,0.593,2.936,0.09    c0.982-0.501,1.519-1.329,1.61-2.485c0.07-0.873-0.115-1.745-0.56-2.618c-0.52-1.021-1.228-1.733-2.122-2.133    c-0.894-0.404-1.769-0.361-2.624,0.127C32.888,15.221,32.369,15.891,32.162,16.855z"/>
		<path fill="#231F20" stroke="#231F20" stroke-width="0.045" d="M45.1,15.912l0.607,2.659l-5.196,1.671l-0.059-0.188l0.195-0.064    c0.168-0.053,0.293-0.134,0.369-0.246c0.061-0.076,0.09-0.182,0.09-0.318c0.004-0.098-0.055-0.334-0.174-0.707l-1.56-4.851    c-0.121-0.381-0.215-0.615-0.279-0.699c-0.063-0.083-0.152-0.148-0.271-0.187c-0.119-0.041-0.259-0.035-0.423,0.018l-0.195,0.063    l-0.061-0.189l3.121-1.003l0.063,0.189l-0.257,0.082c-0.17,0.055-0.293,0.137-0.371,0.246c-0.059,0.076-0.09,0.184-0.094,0.322    c-0.004,0.098,0.055,0.334,0.174,0.707l1.509,4.699c0.121,0.375,0.215,0.609,0.283,0.703c0.068,0.092,0.162,0.148,0.279,0.166    c0.082,0.01,0.261-0.029,0.539-0.119l0.486-0.156c0.311-0.102,0.545-0.252,0.707-0.457c0.16-0.203,0.269-0.476,0.324-0.824    c0.057-0.345,0.057-0.83,0.006-1.452L45.1,15.912z"/>
		<path fill="#231F20" stroke="#231F20" stroke-width="0.045" d="M51.356,9.744l0.031,0.197c-0.199,0.066-0.339,0.164-0.429,0.293    c-0.123,0.184-0.293,0.654-0.503,1.411l-0.876,2.987l0.294,1.847c0.063,0.398,0.117,0.644,0.166,0.736    c0.047,0.092,0.123,0.167,0.234,0.226c0.107,0.059,0.244,0.074,0.404,0.049l0.344-0.055l0.031,0.197l-3.4,0.539l-0.031-0.197    l0.314-0.049c0.177-0.027,0.314-0.092,0.408-0.188c0.07-0.066,0.117-0.166,0.141-0.303c0.016-0.095-0.008-0.337-0.068-0.726    L48.17,15.18l-1.956-3.061c-0.385-0.604-0.645-0.955-0.777-1.05c-0.137-0.098-0.301-0.133-0.498-0.104l-0.029-0.197l2.899-0.46    l0.031,0.195l-0.131,0.021c-0.176,0.027-0.293,0.08-0.352,0.156c-0.059,0.076-0.082,0.15-0.072,0.225    c0.021,0.137,0.197,0.465,0.527,0.984l1.505,2.346l0.734-2.475c0.18-0.615,0.254-1.017,0.225-1.204    c-0.018-0.102-0.068-0.182-0.154-0.238c-0.117-0.078-0.313-0.107-0.591-0.082l-0.029-0.197L51.356,9.744z"/>
		<path fill="#231F20" stroke="#231F20" stroke-width="0.045" d="M58.625,9.646v2.096h-0.164c-0.094-0.482-0.201-0.832-0.318-1.042    c-0.119-0.21-0.279-0.378-0.486-0.505c-0.111-0.068-0.314-0.104-0.601-0.104h-0.469v5.973c0,0.4,0.018,0.652,0.053,0.75    c0.035,0.102,0.104,0.188,0.203,0.264c0.1,0.074,0.236,0.111,0.408,0.111h0.203v0.199h-3.209v-0.199h0.203    c0.178,0,0.32-0.039,0.425-0.121c0.078-0.055,0.143-0.145,0.188-0.277c0.033-0.092,0.051-0.332,0.051-0.726v-5.973h-0.468    c-0.412,0-0.713,0.113-0.902,0.332c-0.26,0.308-0.424,0.75-0.492,1.319h-0.176V9.646H58.625z"/>
		<path fill="#231F20" stroke="#231F20" stroke-width="0.045" d="M62.373,10.525l-0.458,3.115l0.119,0.02    c0.388,0.057,0.693-0.055,0.912-0.334c0.218-0.279,0.396-0.712,0.533-1.302l0.162,0.023l-0.587,4.011l-0.164-0.023    c0.029-0.441,0.006-0.808-0.07-1.105c-0.076-0.294-0.184-0.5-0.322-0.619c-0.139-0.117-0.353-0.199-0.646-0.242l-0.316,2.153    c-0.061,0.419-0.083,0.681-0.07,0.777c0.013,0.098,0.056,0.184,0.125,0.256c0.068,0.07,0.188,0.119,0.361,0.144l0.365,0.055    c0.566,0.082,1.046-0.016,1.439-0.292c0.392-0.279,0.708-0.746,0.955-1.402l0.171,0.023l-0.632,2.392l-5.253-0.771l0.029-0.197    l0.203,0.029c0.176,0.025,0.324,0.008,0.445-0.057c0.084-0.041,0.156-0.125,0.216-0.248c0.047-0.086,0.1-0.324,0.156-0.712    l0.74-5.04c0.053-0.35,0.076-0.564,0.072-0.646c-0.01-0.139-0.049-0.25-0.119-0.334C60.642,10.076,60.492,10,60.292,9.97    l-0.203-0.029l0.029-0.197l5.089,0.746l-0.334,2.26l-0.162-0.023c-0.008-0.564-0.074-0.978-0.195-1.242    c-0.121-0.263-0.316-0.472-0.591-0.628c-0.154-0.092-0.463-0.172-0.927-0.24L62.373,10.525z"/>
		<path fill="#231F20" stroke="#231F20" stroke-width="0.045" d="M72.93,12.455c-0.08,0.178-0.168,0.303-0.262,0.365    c-0.094,0.066-0.188,0.084-0.281,0.055c-0.074-0.023-0.223-0.141-0.447-0.355c-0.39-0.369-0.791-0.617-1.207-0.746    c-0.564-0.176-1.151-0.166-1.758,0.027c-0.605,0.195-1.156,0.562-1.647,1.101c-0.492,0.542-0.845,1.165-1.066,1.87    c-0.207,0.667-0.27,1.339-0.188,2.014s0.318,1.246,0.707,1.714c0.391,0.469,0.9,0.798,1.53,0.996    c0.477,0.148,0.923,0.18,1.343,0.096c0.417-0.084,0.861-0.291,1.327-0.623l0.197-0.637c-0.498,0.393-0.931,0.643-1.306,0.75    c-0.371,0.107-0.742,0.104-1.115-0.012c-0.451-0.14-0.775-0.394-0.974-0.761c-0.197-0.365-0.277-0.841-0.242-1.427    c0.035-0.583,0.158-1.208,0.363-1.87c0.209-0.673,0.49-1.255,0.843-1.749c0.275-0.384,0.607-0.662,0.998-0.833    c0.39-0.169,0.769-0.197,1.138-0.082c0.441,0.137,0.779,0.438,1.015,0.904c0.238,0.467,0.316,1.054,0.234,1.765l0.17,0.053    l0.794-2.563L72.93,12.455z"/>
		<path fill="#231F20" stroke="#231F20" stroke-width="0.045" d="M77.033,18.971l-1.087,2.141c-0.177,0.352-0.302,0.558-0.375,0.625    c-0.1,0.098-0.197,0.148-0.293,0.162c-0.133,0.023-0.277-0.006-0.437-0.086l-0.178-0.092l-0.09,0.18l2.862,1.452l0.089-0.177    l-0.179-0.09c-0.152-0.078-0.258-0.174-0.314-0.287s-0.078-0.223-0.064-0.326c0.016-0.105,0.113-0.333,0.295-0.693l2.307-4.542    c0.178-0.348,0.303-0.557,0.375-0.623c0.099-0.097,0.197-0.15,0.292-0.162c0.131-0.025,0.277,0.006,0.436,0.085l0.177,0.09    l0.092-0.177l-2.861-1.453l-0.09,0.176l0.178,0.092c0.152,0.078,0.255,0.174,0.314,0.285c0.059,0.115,0.08,0.222,0.066,0.328    c-0.016,0.104-0.113,0.336-0.294,0.691l-0.992,1.954l-1.942-0.988l0.992-1.952c0.178-0.352,0.303-0.559,0.375-0.625    c0.098-0.096,0.197-0.15,0.293-0.162c0.129-0.025,0.273,0.004,0.434,0.083l0.179,0.092l0.092-0.177l-2.861-1.453l-0.09,0.178    l0.184,0.092c0.152,0.078,0.255,0.174,0.31,0.285c0.057,0.113,0.078,0.222,0.063,0.326c-0.016,0.105-0.113,0.336-0.293,0.693    l-2.307,4.541c-0.18,0.352-0.302,0.558-0.375,0.625c-0.098,0.1-0.193,0.152-0.289,0.164c-0.131,0.023-0.277-0.004-0.436-0.084    l-0.183-0.094l-0.09,0.178l2.861,1.452l0.088-0.175l-0.179-0.094c-0.152-0.076-0.256-0.17-0.313-0.283    c-0.053-0.113-0.074-0.221-0.063-0.326c0.014-0.105,0.111-0.337,0.293-0.693l1.087-2.141L77.033,18.971z"/>
		<path fill="#231F20" stroke="#231F20" stroke-width="0.045" d="M83.839,18.475l-0.396,5.645l1.96-2.654    c0.279-0.377,0.426-0.664,0.439-0.861c0.016-0.266-0.115-0.498-0.396-0.693l0.119-0.162l1.638,1.212l-0.117,0.16    c-0.236-0.121-0.41-0.182-0.523-0.18c-0.109,0.002-0.232,0.049-0.363,0.141c-0.129,0.094-0.304,0.287-0.523,0.585l-3.828,5.181    l-0.127-0.094l0.494-7.675l-2.938,3.977c-0.269,0.361-0.382,0.654-0.343,0.878c0.037,0.222,0.141,0.398,0.312,0.525l0.121,0.09    l-0.117,0.158l-1.765-1.3l0.119-0.16c0.275,0.195,0.514,0.265,0.724,0.205c0.209-0.061,0.438-0.257,0.686-0.593l3.238-4.384    l0.02-0.252c0.018-0.25,0.006-0.429-0.033-0.542s-0.131-0.227-0.277-0.343l0.119-0.162L83.839,18.475z"/>
		<path fill="#231F20" stroke="#231F20" stroke-width="0.045" d="M85.389,29.689l-0.139,0.145l-2.309-2.229l0.139-0.144l0.146,0.144    c0.129,0.123,0.261,0.195,0.396,0.215c0.092,0.012,0.199-0.012,0.32-0.078c0.088-0.043,0.268-0.205,0.541-0.488l3.537-3.668    c0.275-0.287,0.439-0.478,0.486-0.572c0.045-0.096,0.057-0.205,0.035-0.33c-0.023-0.125-0.094-0.248-0.216-0.365l-0.148-0.143    l0.139-0.143l2.309,2.225l-0.139,0.145l-0.145-0.143c-0.129-0.123-0.259-0.193-0.396-0.21c-0.094-0.016-0.201,0.008-0.322,0.072    c-0.088,0.043-0.27,0.207-0.541,0.488l-3.537,3.668c-0.277,0.289-0.439,0.48-0.482,0.576c-0.047,0.094-0.059,0.205-0.039,0.328    c0.021,0.125,0.093,0.246,0.218,0.365L85.389,29.689z"/>
		<path fill="#231F20" stroke="#231F20" stroke-width="0.045" d="M95.502,29.76l-2.092,1.679l-0.109-0.137    c0.464-0.544,0.73-1.078,0.792-1.595c0.064-0.518-0.047-0.958-0.338-1.318c-0.24-0.3-0.57-0.49-0.99-0.566    c-0.417-0.078-0.849-0.035-1.292,0.131c-0.568,0.211-1.128,0.537-1.679,0.978c-0.539,0.433-0.988,0.882-1.345,1.349    c-0.357,0.465-0.556,0.904-0.597,1.318c-0.041,0.414,0.086,0.806,0.381,1.175c0.246,0.305,0.55,0.516,0.919,0.634    c0.369,0.119,0.869,0.154,1.499,0.107l-0.52,0.418c-0.572,0.014-1.054-0.063-1.448-0.227c-0.392-0.166-0.746-0.441-1.06-0.832    c-0.412-0.515-0.65-1.074-0.71-1.681c-0.063-0.605,0.063-1.208,0.373-1.815c0.308-0.605,0.736-1.126,1.282-1.565    c0.578-0.46,1.22-0.779,1.929-0.953c0.71-0.174,1.37-0.17,1.981,0.01c0.613,0.178,1.104,0.498,1.474,0.96    c0.271,0.338,0.466,0.769,0.582,1.292c0.068,0.302,0.125,0.484,0.172,0.544c0.063,0.076,0.15,0.113,0.266,0.113    c0.113-0.002,0.253-0.053,0.421-0.158L95.502,29.76z"/>
		<path fill="#231F20" stroke="#231F20" stroke-width="0.045" d="M92.583,40.096c-0.082-0.154-0.109-0.293-0.09-0.416    c0.02-0.125,0.066-0.227,0.139-0.301c0.074-0.078,0.287-0.207,0.642-0.39l4.519-2.354c0.348-0.182,0.57-0.277,0.668-0.289    c0.134-0.023,0.244-0.016,0.33,0.031c0.121,0.059,0.223,0.168,0.305,0.324l0.094,0.183l0.178-0.094l-1.482-2.846l-0.176,0.094    l0.094,0.18c0.078,0.152,0.109,0.291,0.09,0.417c-0.02,0.125-0.066,0.225-0.139,0.301c-0.076,0.074-0.289,0.205-0.642,0.39    l-4.519,2.354c-0.35,0.178-0.572,0.273-0.67,0.289c-0.134,0.023-0.244,0.012-0.326-0.029c-0.123-0.061-0.225-0.17-0.307-0.328    l-0.096-0.185l-0.178,0.094l1.484,2.846l0.175-0.09L92.583,40.096z"/>
		<path fill="#231F20" stroke="#231F20" stroke-width="0.045" d="M100.09,38.161l-0.188,0.066c0.055,0.18,0.066,0.324,0.037,0.439    c-0.029,0.117-0.121,0.271-0.275,0.469l-0.154,0.201l-5.136,1.839c-0.39,0.141-0.689,0.176-0.896,0.113    c-0.209-0.068-0.369-0.258-0.486-0.574l-0.188,0.066l0.738,2.061l0.188-0.066l-0.051-0.14c-0.072-0.199-0.061-0.406,0.031-0.613    c0.094-0.207,0.354-0.386,0.777-0.539l4.654-1.667l-4.685,6.102l0.055,0.148l6.063-2.17c0.348-0.125,0.601-0.191,0.763-0.195    c0.158-0.004,0.285,0.023,0.379,0.084s0.205,0.209,0.332,0.439l0.188-0.066l-0.685-1.919l-0.188,0.068    c0.121,0.318,0.104,0.585-0.059,0.796c-0.121,0.156-0.402,0.313-0.843,0.47l-3.107,1.113l3.473-4.464L100.09,38.161z"/>
		<path fill="#231F20" stroke="#231F20" stroke-width="0.045" d="M103.504,49.418c-0.234,0.006-0.385-0.01-0.455-0.044    c-0.066-0.031-0.109-0.084-0.125-0.16c-0.016-0.082,0.018-0.234,0.098-0.457c0.082-0.222,0.131-0.41,0.146-0.562    c0.023-0.193,0.016-0.391-0.023-0.589c-0.107-0.535-0.408-0.939-0.904-1.207c-0.494-0.27-1.042-0.342-1.647-0.225    c-0.355,0.07-0.667,0.199-0.937,0.387c-0.27,0.186-0.501,0.421-0.693,0.708c-0.191,0.285-0.402,0.734-0.632,1.353    c-0.166,0.439-0.307,0.752-0.428,0.937c-0.121,0.186-0.257,0.33-0.41,0.443c-0.152,0.107-0.318,0.18-0.496,0.215    c-0.304,0.062-0.587,0.016-0.855-0.137c-0.265-0.152-0.431-0.395-0.496-0.726c-0.086-0.43,0.047-0.873,0.394-1.33    c0.348-0.455,0.91-0.826,1.688-1.115l-0.033-0.162l-2.859,0.564l0.031,0.162c0.166,0.025,0.297,0.072,0.388,0.143    c0.092,0.074,0.146,0.148,0.162,0.226c0.018,0.088,0.004,0.211-0.043,0.369c-0.084,0.283-0.135,0.515-0.148,0.693    c-0.014,0.18-0.004,0.363,0.033,0.554c0.121,0.604,0.447,1.054,0.982,1.359c0.533,0.3,1.119,0.39,1.751,0.265    c0.5-0.097,0.919-0.308,1.259-0.628c0.337-0.324,0.656-0.884,0.951-1.681c0.212-0.564,0.367-0.931,0.46-1.099    c0.137-0.225,0.281-0.398,0.441-0.518c0.117-0.084,0.26-0.143,0.428-0.178c0.266-0.055,0.515-0.012,0.755,0.125    c0.236,0.135,0.387,0.355,0.447,0.66c0.076,0.391-0.045,0.792-0.361,1.207c-0.32,0.41-0.787,0.722-1.399,0.937l0.037,0.184    l2.518-0.545L103.504,49.418z"/>
		<path fill="#231F20" stroke="#231F20" stroke-width="0.045" d="M103.98,57.15l-2.092,0.113l-0.01-0.164    c0.48-0.121,0.82-0.246,1.024-0.373c0.205-0.129,0.365-0.303,0.479-0.514c0.063-0.117,0.086-0.318,0.07-0.605l-0.023-0.468    l-5.965,0.322c-0.398,0.021-0.648,0.053-0.746,0.094c-0.098,0.037-0.182,0.111-0.25,0.213c-0.07,0.105-0.102,0.244-0.092,0.417    l0.01,0.201l-0.197,0.01l-0.174-3.205l0.199-0.012l0.012,0.207c0.01,0.176,0.057,0.316,0.143,0.417    c0.059,0.076,0.154,0.133,0.287,0.17c0.094,0.029,0.337,0.033,0.728,0.012l5.963-0.318l-0.023-0.468    c-0.023-0.41-0.148-0.707-0.379-0.882c-0.324-0.242-0.771-0.383-1.345-0.421l-0.01-0.176l2.092-0.111L103.98,57.15z"/>
		<path fill="#231F20" stroke="#231F20" stroke-width="0.045" d="M96.146,61.296l-0.197-0.014l0.224-3.199l0.199,0.012l-0.014,0.203    c-0.014,0.18,0.018,0.326,0.09,0.442c0.049,0.08,0.137,0.143,0.264,0.197c0.09,0.039,0.33,0.073,0.72,0.103l5.081,0.356    c0.4,0.029,0.652,0.033,0.753,0.006s0.193-0.086,0.275-0.184c0.082-0.098,0.128-0.232,0.14-0.402l0.014-0.204l0.199,0.014    l-0.227,3.201l-0.197-0.012l0.014-0.205c0.012-0.176-0.018-0.322-0.09-0.436c-0.049-0.086-0.137-0.152-0.264-0.203    c-0.09-0.041-0.33-0.074-0.722-0.102l-5.081-0.358c-0.398-0.027-0.648-0.027-0.751-0.002c-0.102,0.025-0.193,0.088-0.275,0.182    c-0.082,0.093-0.129,0.228-0.141,0.401L96.146,61.296z"/>
		<path fill="#231F20" stroke="#231F20" stroke-width="0.045" d="M102.436,68.866l-2.056-0.414l0.033-0.16    c0.492,0.004,0.855-0.031,1.083-0.105c0.232-0.074,0.427-0.199,0.591-0.375c0.09-0.098,0.164-0.287,0.221-0.569l0.094-0.461    l-5.856-1.177c-0.393-0.08-0.642-0.111-0.746-0.096c-0.105,0.014-0.205,0.063-0.297,0.145c-0.094,0.082-0.158,0.208-0.193,0.378    l-0.039,0.199l-0.195-0.041l0.632-3.145l0.197,0.039l-0.041,0.201c-0.035,0.174-0.023,0.318,0.035,0.439    c0.037,0.088,0.115,0.168,0.234,0.238c0.084,0.051,0.318,0.117,0.703,0.19l5.856,1.182l0.091-0.459    c0.08-0.406,0.033-0.723-0.146-0.948c-0.252-0.316-0.652-0.563-1.197-0.746l0.033-0.172l2.056,0.416L102.436,68.866z"/>
		<path fill="#231F20" stroke="#231F20" stroke-width="0.045" d="M101.993,70.512l-1.124,2.969l-0.186-0.07l0.055-0.148    c0.086-0.227,0.113-0.391,0.086-0.496c-0.027-0.109-0.086-0.199-0.176-0.272c-0.092-0.074-0.348-0.191-0.763-0.352l-3.539-1.339    c-0.646-0.246-1.089-0.371-1.327-0.371c-0.238-0.002-0.463,0.059-0.67,0.188c-0.205,0.127-0.361,0.323-0.46,0.593    c-0.119,0.309-0.133,0.609-0.039,0.893s0.275,0.538,0.544,0.763c0.268,0.227,0.785,0.484,1.552,0.777l2.945,1.116    c0.328,0.125,0.574,0.188,0.732,0.188c0.162,0,0.283-0.031,0.369-0.09c0.129-0.096,0.238-0.258,0.324-0.484l0.186,0.07    l-0.751,1.981l-0.186-0.07l0.045-0.117c0.063-0.164,0.07-0.313,0.029-0.454c-0.043-0.137-0.137-0.26-0.283-0.375    c-0.102-0.078-0.301-0.176-0.602-0.285l-2.745-1.042c-0.851-0.324-1.448-0.602-1.79-0.832c-0.344-0.232-0.607-0.578-0.794-1.042    c-0.186-0.465-0.164-0.994,0.061-1.591c0.189-0.498,0.417-0.85,0.689-1.061c0.367-0.285,0.757-0.433,1.171-0.45    c0.412-0.018,0.921,0.087,1.521,0.315l3.539,1.342c0.422,0.159,0.691,0.239,0.808,0.241c0.117,0,0.223-0.031,0.318-0.098    c0.096-0.067,0.186-0.222,0.275-0.466L101.993,70.512z"/>
		<path fill="#231F20" stroke="#231F20" stroke-width="0.045" d="M96.307,82.587l-1.817-1.045l0.082-0.145    c0.467,0.16,0.822,0.24,1.064,0.246c0.24,0.004,0.468-0.053,0.679-0.168c0.115-0.063,0.246-0.223,0.391-0.471l0.232-0.407    l-5.176-2.979c-0.348-0.199-0.572-0.309-0.678-0.326c-0.104-0.021-0.212-0.006-0.328,0.045c-0.115,0.047-0.215,0.145-0.301,0.296    l-0.102,0.174l-0.172-0.096l1.601-2.783l0.171,0.102l-0.102,0.176c-0.089,0.152-0.125,0.295-0.105,0.426    c0.006,0.098,0.055,0.197,0.144,0.302c0.064,0.076,0.266,0.211,0.605,0.408l5.177,2.977l0.234-0.407    c0.205-0.354,0.26-0.67,0.162-0.945c-0.139-0.378-0.437-0.741-0.898-1.083l0.088-0.152l1.817,1.044L96.307,82.587z"/>
		<path fill="#231F20" stroke="#231F20" stroke-width="0.045" d="M93.264,85.88c-0.293,0.366-0.518,0.593-0.673,0.679    c-0.273,0.16-0.553,0.223-0.841,0.197c-0.289-0.029-0.68-0.182-1.171-0.459l-0.104,0.129l1.786,1.425l3.207-4.017l-0.156-0.125    l-0.127,0.16c-0.125,0.158-0.265,0.246-0.421,0.27c-0.107,0.018-0.223-0.006-0.346-0.064c-0.072-0.037-0.248-0.17-0.523-0.389    l-3.982-3.182c-0.307-0.246-0.484-0.41-0.535-0.492c-0.076-0.113-0.111-0.219-0.107-0.313c0.006-0.135,0.064-0.273,0.176-0.413    l0.129-0.16l-0.154-0.123l-3.314,4.146l1.747,1.751l0.107-0.133c-0.441-0.542-0.685-1.054-0.73-1.534    c-0.041-0.477,0.115-0.938,0.472-1.386l0.23-0.291c0.109-0.139,0.211-0.217,0.309-0.24c0.098-0.02,0.191-0.016,0.281,0.023    c0.092,0.035,0.305,0.188,0.637,0.453l1.7,1.356c-0.186,0.232-0.361,0.375-0.535,0.436c-0.17,0.059-0.404,0.051-0.697-0.035    c-0.293-0.082-0.621-0.246-0.988-0.494l-0.102,0.129l3.167,2.53l0.102-0.129c-0.439-0.416-0.725-0.787-0.855-1.115    c-0.131-0.331-0.074-0.647,0.171-0.956l0.074-0.096l2.461,1.968L93.264,85.88z"/>
	</g>
	<path fill="none" stroke="#231F20" stroke-width="0.5466" d="M60.359,79.015l10.658-9.263c0,0,4.619-2.99,4.736-9.553   c0.058-3.355-0.328-14.833,0-20.795c0.148-2.688,1.36-4.735,2.495-5.604c0.878-0.666,0.878-0.666,0.878-0.666   c0.712-0.486,0.712-0.486,0.712-0.486C32.271,32.66,32.271,32.66,32.271,32.66s0,0,0.708,0.477c0,0,0,0,0.884,0.679   c1.138,0.863,2.344,2.907,2.487,5.598c0.334,5.963-0.059,17.439,0,20.791c0.123,6.568,4.732,9.557,4.732,9.557l10.316,9.065"/>
	<path fill="#231F20" d="M33.259,32.602c3.311,2.854,2.926,8.573,2.926,8.573h19.668v-8.573H33.259z M49.99,37.673   c0,0.305-0.252,0.551-0.562,0.551c-0.266,0-0.453-0.191-0.514-0.436H46.5v2.161c0.232,0.066,0.422,0.242,0.422,0.496   c0,0.301-0.252,0.546-0.563,0.546c-0.289,0-0.507-0.218-0.539-0.492c-0.031,0.273-0.25,0.492-0.539,0.492   c-0.311,0-0.563-0.246-0.563-0.546c0-0.232,0.168-0.396,0.375-0.476v-2.181H42.82c-0.061,0.244-0.248,0.436-0.514,0.436   c-0.31,0-0.562-0.246-0.562-0.551c0-0.238,0.178-0.406,0.398-0.48v-0.086c-0.22-0.074-0.398-0.242-0.398-0.484   c0-0.301,0.252-0.547,0.562-0.547c0.229,0,0.387,0.152,0.475,0.342h2.313v-2.134c-0.207-0.082-0.375-0.242-0.375-0.474   c0-0.303,0.252-0.548,0.563-0.548c0.289,0,0.507,0.22,0.539,0.494c0.031-0.273,0.25-0.494,0.539-0.494   c0.311,0,0.563,0.246,0.563,0.548c0,0.25-0.189,0.427-0.422,0.492v2.116h2.454c0.088-0.189,0.246-0.342,0.475-0.342   c0.31,0,0.562,0.246,0.562,0.547c0,0.277-0.219,0.484-0.492,0.521v0.012C49.771,37.193,49.99,37.4,49.99,37.673z"/>
</g>
</svg>